<svg aria-hidden="true" style="position: absolute; width: 0; height: 0; overflow: hidden;" version="1.1" xmlns="http://www.w3.org/2000/svg" xmlns:xlink="http://www.w3.org/1999/xlink">
<defs>
<symbol id="icon-section-easy-and-fast-icon-building" viewBox="0 0 32 32">
<path fill="#84829a" style="fill: var(--color1, #84829a)" d="M0.533 30.933h3.2v-17.6c0-0.295 0.239-0.533 0.533-0.533h7.467v-12.267c0-0.295 0.239-0.533 0.533-0.533h13.867c0.294 0 0.533 0.239 0.533 0.533v30.4h4.8c0.295 0 0.533 0.239 0.533 0.533s-0.239 0.533-0.533 0.533h-30.933c-0.295 0-0.533-0.239-0.533-0.533s0.239-0.533 0.533-0.533zM20.8 30.933h2.133v-4.8c0-0.295-0.239-0.533-0.533-0.533h-1.067c-0.295 0-0.533 0.239-0.533 0.533v4.8zM18.667 13.333v17.6h1.067v-4.8c0-0.884 0.716-1.6 1.6-1.6h1.067c0.884 0 1.6 0.716 1.6 1.6v4.8h1.6v-29.867h-12.8v11.733h5.333c0.295 0 0.533 0.239 0.533 0.533zM4.8 30.933h12.8v-17.067h-12.8v17.067z"></path>
<path fill="#84829a" style="fill: var(--color1, #84829a)" d="M14.933 7.467h3.2c0.295 0 0.533 0.239 0.533 0.533v3.2c0 0.295-0.239 0.533-0.533 0.533h-3.2c-0.295 0-0.533-0.239-0.533-0.533v-3.2c0-0.295 0.239-0.533 0.533-0.533zM15.466 10.667h2.133v-2.133h-2.133v2.133z"></path>
<path fill="#84829a" style="fill: var(--color1, #84829a)" d="M14.933 2.133h3.2c0.295 0 0.533 0.239 0.533 0.533v3.2c0 0.295-0.239 0.533-0.533 0.533h-3.2c-0.295 0-0.533-0.239-0.533-0.533v-3.2c0-0.295 0.239-0.533 0.533-0.533zM15.466 5.333h2.133v-2.133h-2.133v2.133z"></path>
<path fill="#84829a" style="fill: var(--color1, #84829a)" d="M20.267 7.467h3.2c0.295 0 0.533 0.239 0.533 0.533v3.2c0 0.295-0.239 0.533-0.533 0.533h-3.2c-0.294 0-0.533-0.239-0.533-0.533v-3.2c0-0.295 0.239-0.533 0.533-0.533zM20.8 10.667h2.133v-2.133h-2.133v2.133z"></path>
<path fill="#84829a" style="fill: var(--color1, #84829a)" d="M20.267 2.133h3.2c0.295 0 0.533 0.239 0.533 0.533v3.2c0 0.295-0.239 0.533-0.533 0.533h-3.2c-0.294 0-0.533-0.239-0.533-0.533v-3.2c0-0.295 0.239-0.533 0.533-0.533zM20.8 5.333h2.133v-2.133h-2.133v2.133z"></path>
<path fill="#84829a" style="fill: var(--color1, #84829a)" d="M20.267 12.8h3.2c0.295 0 0.533 0.239 0.533 0.533v3.2c0 0.295-0.239 0.533-0.533 0.533h-3.2c-0.294 0-0.533-0.239-0.533-0.533v-3.2c0-0.295 0.239-0.533 0.533-0.533zM20.8 16h2.133v-2.133h-2.133v2.133z"></path>
<path fill="#84829a" style="fill: var(--color1, #84829a)" d="M20.267 18.133h3.2c0.295 0 0.533 0.239 0.533 0.533v3.2c0 0.295-0.239 0.533-0.533 0.533h-3.2c-0.294 0-0.533-0.239-0.533-0.533v-3.2c0-0.295 0.239-0.533 0.533-0.533zM20.8 21.333h2.133v-2.133h-2.133v2.133z"></path>
<path fill="#84829a" style="fill: var(--color1, #84829a)" d="M10.133 24.533h-3.2c-0.295 0-0.533-0.239-0.533-0.533v-3.2c0-0.295 0.239-0.533 0.533-0.533h3.2c0.295 0 0.533 0.239 0.533 0.533v3.2c0 0.294-0.239 0.533-0.533 0.533zM9.6 21.333h-2.133v2.133h2.133v-2.133z"></path>
<path fill="#84829a" style="fill: var(--color1, #84829a)" d="M10.133 19.2h-3.2c-0.295 0-0.533-0.239-0.533-0.533v-3.2c0-0.295 0.239-0.533 0.533-0.533h3.2c0.295 0 0.533 0.239 0.533 0.533v3.2c0 0.295-0.239 0.533-0.533 0.533zM9.6 16h-2.133v2.133h2.133v-2.133z"></path>
<path fill="#84829a" style="fill: var(--color1, #84829a)" d="M10.133 29.867h-3.2c-0.295 0-0.533-0.239-0.533-0.533v-3.2c0-0.295 0.239-0.533 0.533-0.533h3.2c0.295 0 0.533 0.239 0.533 0.533v3.2c0 0.295-0.239 0.533-0.533 0.533zM9.6 26.667h-2.133v2.133h2.133v-2.133z"></path>
<path fill="#84829a" style="fill: var(--color1, #84829a)" d="M15.467 24.533h-3.2c-0.295 0-0.533-0.239-0.533-0.533v-3.2c0-0.295 0.239-0.533 0.533-0.533h3.2c0.295 0 0.533 0.239 0.533 0.533v3.2c0 0.294-0.239 0.533-0.533 0.533zM14.933 21.333h-2.133v2.133h2.133v-2.133z"></path>
<path fill="#84829a" style="fill: var(--color1, #84829a)" d="M15.467 19.2h-3.2c-0.295 0-0.533-0.239-0.533-0.533v-3.2c0-0.295 0.239-0.533 0.533-0.533h3.2c0.295 0 0.533 0.239 0.533 0.533v3.2c0 0.295-0.239 0.533-0.533 0.533zM14.933 16h-2.133v2.133h2.133v-2.133z"></path>
<path fill="#84829a" style="fill: var(--color1, #84829a)" d="M15.467 29.867h-3.2c-0.295 0-0.533-0.239-0.533-0.533v-3.2c0-0.295 0.239-0.533 0.533-0.533h3.2c0.295 0 0.533 0.239 0.533 0.533v3.2c0 0.295-0.239 0.533-0.533 0.533zM14.933 26.667h-2.133v2.133h2.133v-2.133z"></path>
</symbol>
<symbol id="icon-section-easy-and-fast-icon-leaf" viewBox="0 0 32 32">
<path fill="#84829a" style="fill: var(--color1, #84829a)" d="M31.21 0.345c-0.843-0.247-21.467-2.3-28.71 7.485-3.208 4.335-3.256 10.278-0.161 17.661-0.785 1.63-1.473 3.346-2.033 5.158-0.17 0.55 0.138 1.134 0.688 1.304 0.102 0.032 0.206 0.047 0.309 0.047 0.445 0 0.857-0.287 0.995-0.734 5.521-17.848 23.461-26.482 28.962-28.664 0.536-0.212 1.251-1.876-0.050-2.257z"></path>
<path fill="#84829a" style="fill: var(--color1, #84829a)" d="M5.65 27.725c2.986 1.253 5.972 1.895 8.748 1.895 2.496 0 4.823-0.513 6.828-1.554 4.036-2.094 6.503-6.099 7.133-11.583 0.642-5.59 1.44-9.091 2.107-11.232-5.932 2.736-18.652 9.829-24.816 22.475z"></path>
</symbol>
<symbol id="icon-section-easy-and-fast-icon-map" viewBox="0 0 32 32">
<path fill="#84829a" style="fill: var(--color1, #84829a)" d="M30.859 0c-0.178-0-0.353 0.041-0.512 0.121l-8.66 4.331-9.793-4.353c-0.016-0.007-0.034-0.008-0.051-0.015-0.044-0.016-0.089-0.030-0.135-0.041-0.045-0.012-0.092-0.022-0.138-0.029-0.093-0.008-0.186-0.008-0.279 0-0.047 0.007-0.093 0.016-0.138 0.029-0.046 0.011-0.091 0.025-0.135 0.041-0.017 0.007-0.035 0.008-0.051 0.015l-10.286 4.571c-0.413 0.183-0.679 0.593-0.679 1.045v25.142c0 0.387 0.196 0.747 0.52 0.958s0.733 0.244 1.087 0.087l9.822-4.366 9.822 4.366c0.017 0.007 0.035 0 0.053 0.010 0.277 0.124 0.594 0.117 0.865-0.019 0.018-0.008 0.039 0 0.057-0.013l9.143-4.571c0.387-0.194 0.632-0.59 0.632-1.023v-25.142c0-0.631-0.511-1.143-1.142-1.143zM10.288 25.543l-8 3.555v-22.641l8-3.555v22.641zM20.573 29.098l-8-3.555v-22.641l8 3.555v22.641zM29.716 25.58l-6.857 3.428v-22.587l6.857-3.429v22.587z"></path>
</symbol>
<symbol id="icon-section-easy-and-fast-icon-selection" viewBox="0 0 32 32">
<path fill="#fff" style="fill: var(--color2, #fff)" d="M0.792 6.51c-0.431 0-0.784-0.353-0.792-0.784v-4.933c0-0.439 0.353-0.792 0.792-0.792h4.933c0.431 0 0.784 0.353 0.784 0.792v1.718h18.98v-1.718c0-0.431 0.353-0.784 0.784-0.792h4.933c0.431 0 0.784 0.353 0.792 0.792v4.933c0 0.431-0.353 0.784-0.792 0.784h-1.718v18.98h1.718c0.431 0 0.784 0.353 0.792 0.784v4.933c0 0.431-0.353 0.784-0.792 0.792h-4.933c-0.431 0-0.784-0.353-0.784-0.792v-1.718h-18.98v1.718c0 0.431-0.353 0.784-0.784 0.792h-4.933c-0.431 0-0.784-0.353-0.792-0.792v-4.933c0-0.431 0.353-0.784 0.792-0.784h1.718v-18.98h-1.718zM30.431 4.941v-3.373h-3.373v3.373h3.373zM27.059 30.431h3.373v-3.373h-3.373v3.373zM6.51 26.274v1.647h18.98v-1.647c0-0.431 0.353-0.784 0.784-0.784h1.647v-18.98h-1.647c-0.431 0-0.784-0.353-0.784-0.784v-1.647h-18.98v1.647c0 0.431-0.353 0.784-0.784 0.784h-1.647v18.98h1.647c0.431 0 0.784 0.353 0.784 0.784zM1.569 27.059v3.373h3.373v-3.373h-3.373zM4.941 4.941v-3.373h-3.373v3.373h3.373z"></path>
</symbol>
<symbol id="icon-section-easy-and-fast-icon-send" viewBox="0 0 33 32">
<path fill="#fff" style="fill: var(--color2, #fff)" d="M27.352 9.448c0.503 0.871 0.435 1.908-0.177 2.706l-13.435 17.532c-0.554 0.723-1.466 1.092-2.399 0.913-0.914-0.176-1.638-0.842-1.889-1.737l-2.195-7.811-5.667-5.807c-0.65-0.666-0.865-1.626-0.56-2.505 0.301-0.869 1.058-1.499 1.99-1.622l21.901-2.869c0.997-0.131 1.929 0.329 2.432 1.2z"></path>
<path fill="#fff" style="fill: var(--color2, #fff)" d="M7.464 21.786l1.988 7.075c0.251 0.896 0.976 1.562 1.889 1.737 0.933 0.179 1.845-0.189 2.399-0.913l13.436-17.532c0.612-0.798 0.679-1.835 0.177-2.706l-20.096 11.602 0.207 0.736z"></path>
<path fill="#000" style="fill: var(--color3, #000)" d="M15.434 16.328c0.204 0.354 0.083 0.807-0.271 1.012l-7.699 4.445-0.207-0.736-0.534-0.547 7.699-4.445c0.355-0.205 0.808-0.083 1.012 0.271z"></path>
<path fill="#000" style="fill: var(--color3, #000)" d="M7.464 21.786l7.699-4.445c0.355-0.205 0.476-0.658 0.271-1.012l-8.178 4.721 0.207 0.736z"></path>
</symbol>
<symbol id="icon-section-easy-and-fast-icon-taxi" viewBox="0 0 38 32">
<path fill="#fff" style="fill: var(--color2, #fff)" d="M7.2 17.8c-0.475 0-0.939 0.141-1.333 0.404s-0.702 0.639-0.884 1.077c-0.182 0.439-0.229 0.921-0.137 1.387s0.321 0.893 0.657 1.229c0.336 0.336 0.763 0.564 1.229 0.657s0.948 0.045 1.387-0.137c0.439-0.182 0.813-0.489 1.077-0.884s0.404-0.859 0.404-1.333c0-0.636-0.253-1.247-0.703-1.697s-1.061-0.703-1.697-0.703zM7.2 21.4c-0.237 0-0.469-0.070-0.667-0.202s-0.351-0.319-0.442-0.539c-0.091-0.219-0.115-0.46-0.068-0.693s0.161-0.447 0.328-0.614c0.168-0.168 0.382-0.282 0.614-0.328s0.474-0.023 0.693 0.068 0.407 0.245 0.539 0.442c0.132 0.197 0.202 0.429 0.202 0.667 0 0.318-0.126 0.624-0.351 0.848s-0.53 0.352-0.849 0.352z"></path>
<path fill="#fff" style="fill: var(--color2, #fff)" d="M31.2 17.8c-0.475 0-0.939 0.141-1.333 0.404s-0.702 0.639-0.884 1.077c-0.182 0.439-0.229 0.921-0.137 1.387s0.321 0.893 0.657 1.229c0.336 0.336 0.763 0.564 1.229 0.657s0.948 0.045 1.387-0.137c0.439-0.182 0.813-0.489 1.077-0.884s0.404-0.859 0.404-1.333c0-0.636-0.253-1.247-0.703-1.697s-1.061-0.703-1.697-0.703zM31.2 21.4c-0.237 0-0.469-0.070-0.667-0.202s-0.351-0.319-0.442-0.539c-0.091-0.219-0.115-0.46-0.068-0.693s0.161-0.447 0.328-0.614c0.168-0.168 0.382-0.282 0.614-0.328s0.474-0.023 0.693 0.068c0.219 0.091 0.407 0.245 0.539 0.442s0.202 0.429 0.202 0.667c0 0.318-0.126 0.624-0.352 0.848s-0.53 0.352-0.848 0.352z"></path>
<path fill="#fff" style="fill: var(--color2, #fff)" d="M13.8 20.8h10.8v1.2h-10.8v-1.2z"></path>
<path fill="#fff" style="fill: var(--color2, #fff)" d="M13.8 18.4h10.8v1.2h-10.8v-1.2z"></path>
<path fill="#fff" style="fill: var(--color2, #fff)" d="M17.4 9.4h3.6v1.2h-3.6v-1.2z"></path>
<path fill="#fff" style="fill: var(--color2, #fff)" d="M37.2 14.8v-1.2c-0.001-0.477-0.192-0.934-0.529-1.271s-0.794-0.527-1.271-0.529h-2.376l-1.242-4.356-0.372-1.482c-0.098-0.389-0.322-0.734-0.639-0.981s-0.706-0.381-1.107-0.381h-5.064v-2.4c-0.001-0.318-0.128-0.623-0.352-0.847s-0.53-0.352-0.848-0.353h-8.4c-0.318 0.001-0.623 0.128-0.847 0.353s-0.352 0.53-0.353 0.847v2.4h-5.064c-0.401-0-0.791 0.134-1.107 0.381s-0.541 0.592-0.639 0.981l-0.366 1.476-1.248 4.362h-2.376c-0.477 0.001-0.934 0.192-1.271 0.529s-0.527 0.794-0.529 1.271v1.2c0.001 0.304 0.079 0.603 0.227 0.868s0.361 0.489 0.619 0.65c-0.542 0.557-0.846 1.304-0.846 2.082v7.2c0.001 0.252 0.055 0.5 0.158 0.73s0.254 0.435 0.442 0.602v2.268c0.001 0.477 0.192 0.934 0.529 1.271s0.794 0.527 1.271 0.529h4.8c0.477-0.001 0.934-0.192 1.271-0.529s0.527-0.794 0.529-1.271v-1.8h18v1.8c0.001 0.477 0.192 0.934 0.529 1.271s0.794 0.527 1.271 0.529h4.8c0.477-0.001 0.934-0.192 1.271-0.529s0.527-0.794 0.529-1.271v-2.268c0.188-0.167 0.339-0.373 0.442-0.602s0.157-0.478 0.158-0.73v-7.2c0-0.778-0.304-1.525-0.846-2.082 0.258-0.161 0.471-0.384 0.619-0.65s0.226-0.564 0.227-0.868zM15 2.2h8.4v2.4h-8.4v-2.4zM8.154 6.256c0.032-0.13 0.107-0.246 0.212-0.328s0.236-0.128 0.37-0.128h20.928c0.134 0 0.264 0.045 0.37 0.128s0.18 0.198 0.212 0.328l0.186 0.744h-22.464l0.186-0.744zM7.65 8.2h23.1l2.052 7.2h-17.256c-0.141-0.838-0.575-1.6-1.224-2.149s-1.472-0.85-2.322-0.85c-0.85 0-1.673 0.301-2.322 0.85s-1.083 1.31-1.224 2.149h-2.856l2.052-7.2zM14.316 15.4h-4.632c0.131-0.515 0.43-0.971 0.849-1.297s0.936-0.503 1.467-0.503c0.531 0 1.047 0.177 1.467 0.503s0.718 0.783 0.849 1.297zM2.4 13.6c0-0.159 0.063-0.312 0.176-0.424s0.265-0.176 0.424-0.176h2.034l-0.684 2.4h-1.35c-0.159 0-0.312-0.063-0.424-0.176s-0.176-0.265-0.176-0.424v-1.2zM9 29.2c0 0.159-0.063 0.312-0.176 0.424s-0.265 0.176-0.424 0.176h-4.8c-0.159 0-0.312-0.063-0.424-0.176s-0.176-0.265-0.176-0.424v-1.8h6v1.8zM35.4 29.2c0 0.159-0.063 0.312-0.176 0.424s-0.265 0.176-0.424 0.176h-4.8c-0.159 0-0.312-0.063-0.424-0.176s-0.176-0.265-0.176-0.424v-1.8h6v1.8zM36 25.6c0 0.159-0.063 0.312-0.176 0.424s-0.265 0.176-0.424 0.176h-32.4c-0.159 0-0.312-0.063-0.424-0.176s-0.176-0.265-0.176-0.424v-0.6h33.6v0.6zM36 23.8h-33.6v-5.4c0.001-0.477 0.192-0.934 0.529-1.271s0.794-0.527 1.271-0.529h30c0.477 0.001 0.934 0.192 1.271 0.529s0.527 0.794 0.529 1.271v5.4zM36 14.8c0 0.159-0.063 0.312-0.176 0.424s-0.265 0.176-0.424 0.176h-1.35l-0.684-2.4h2.034c0.159 0 0.312 0.063 0.424 0.176s0.176 0.265 0.176 0.424v1.2z"></path>
</symbol>
<symbol id="icon-section-easy-and-fast-icon-water-sport" viewBox="0 0 43 32">
<path fill="#fff" style="fill: var(--color2, #fff)" d="M37.011 31.873c-0.8 0.016-1.587-0.213-2.253-0.656-0.496-0.324-1.076-0.497-1.668-0.497s-1.172 0.172-1.668 0.497c-0.673 0.429-1.454 0.656-2.252 0.656s-1.579-0.228-2.252-0.656c-0.496-0.324-1.076-0.497-1.668-0.497s-1.172 0.173-1.668 0.497c-0.673 0.429-1.454 0.656-2.252 0.656s-1.579-0.228-2.252-0.656c-0.495-0.324-1.075-0.497-1.667-0.497s-1.172 0.173-1.667 0.497c-0.61 0.405-1.322 0.631-2.055 0.65l-0.040-1.153c0.541-0.013 1.066-0.184 1.511-0.492 0.673-0.428 1.454-0.656 2.252-0.656s1.579 0.228 2.252 0.656c0.496 0.324 1.076 0.497 1.668 0.497s1.172-0.173 1.668-0.497c0.673-0.429 1.455-0.657 2.253-0.657s1.58 0.228 2.253 0.657c0.496 0.324 1.076 0.497 1.668 0.497s1.172-0.173 1.668-0.497c0.673-0.428 1.455-0.656 2.252-0.656s1.579 0.228 2.252 0.656c0.497 0.325 1.078 0.498 1.672 0.498s1.175-0.173 1.672-0.498c0.666-0.442 1.45-0.671 2.249-0.655v1.153c-0.595-0.016-1.179 0.158-1.669 0.497-0.668 0.444-1.456 0.673-2.258 0.657z"></path>
<path fill="#fff" style="fill: var(--color2, #fff)" d="M5.651 31.873c-0.8 0.017-1.586-0.212-2.252-0.656-0.489-0.339-1.074-0.513-1.669-0.497v-1.153c0.8-0.017 1.587 0.212 2.253 0.656 0.489 0.339 1.073 0.513 1.668 0.497 0.595 0.016 1.18-0.158 1.669-0.498 0.665-0.444 1.45-0.672 2.249-0.655 0.78-0.018 1.546 0.201 2.2 0.627l-0.582 0.995c-0.477-0.321-1.043-0.485-1.618-0.469-0.593-0.016-1.175 0.158-1.662 0.496-0.667 0.445-1.454 0.674-2.256 0.657z"></path>
<path fill="#fff" style="fill: var(--color2, #fff)" d="M37.012 27.836c-0.801 0.016-1.587-0.213-2.254-0.656-0.496-0.324-1.076-0.497-1.669-0.497s-1.173 0.173-1.669 0.497c-0.673 0.428-1.454 0.656-2.252 0.656s-1.579-0.228-2.252-0.656c-0.496-0.324-1.075-0.497-1.667-0.497s-1.172 0.173-1.668 0.497c-0.673 0.429-1.454 0.656-2.252 0.656s-1.579-0.228-2.252-0.656c-0.496-0.324-1.075-0.497-1.667-0.497s-1.172 0.173-1.667 0.497c-0.666 0.444-1.452 0.673-2.252 0.656-0.8 0.017-1.586-0.212-2.252-0.656-0.489-0.339-1.073-0.513-1.667-0.497-0.594-0.016-1.178 0.158-1.667 0.497-0.665 0.443-1.45 0.672-2.249 0.656-0.8 0.017-1.587-0.212-2.253-0.656-0.49-0.34-1.075-0.514-1.671-0.497v-1.153c0.8-0.017 1.586 0.212 2.252 0.656 0.489 0.339 1.074 0.513 1.669 0.497 0.594 0.016 1.178-0.158 1.667-0.497 0.665-0.443 1.45-0.672 2.249-0.656 0.801-0.017 1.587 0.212 2.254 0.656 0.489 0.339 1.073 0.513 1.668 0.497 0.595 0.016 1.179-0.158 1.668-0.497 0.673-0.429 1.454-0.656 2.252-0.656s1.579 0.228 2.252 0.656c0.496 0.324 1.075 0.497 1.668 0.497s1.172-0.173 1.668-0.497c0.673-0.429 1.454-0.656 2.252-0.656s1.579 0.228 2.252 0.656c0.496 0.324 1.075 0.497 1.668 0.497s1.172-0.173 1.668-0.497c0.674-0.428 1.455-0.656 2.254-0.656s1.58 0.228 2.254 0.656c0.497 0.324 1.077 0.497 1.67 0.497s1.173-0.173 1.67-0.497c0.667-0.443 1.453-0.672 2.254-0.656v1.153c-0.596-0.017-1.182 0.157-1.672 0.497-0.666 0.443-1.452 0.672-2.253 0.656z"></path>
<path fill="#fff" style="fill: var(--color2, #fff)" d="M37.011 23.801c-0.8 0.016-1.586-0.213-2.253-0.656-0.489-0.339-1.074-0.513-1.669-0.497-0.437-0.015-0.87 0.078-1.262 0.271l-0.509-1.038c0.55-0.27 1.158-0.403 1.771-0.388 0.801-0.016 1.588 0.213 2.255 0.658 0.497 0.325 1.078 0.498 1.672 0.498s1.175-0.173 1.672-0.498c0.665-0.442 1.45-0.671 2.249-0.656v1.153c-0.595-0.016-1.179 0.157-1.669 0.496-0.668 0.444-1.456 0.673-2.258 0.657z"></path>
<path fill="#fff" style="fill: var(--color2, #fff)" d="M29.163 23.801c-0.799 0.017-1.584-0.212-2.249-0.656-0.496-0.324-1.076-0.497-1.668-0.497s-1.172 0.173-1.668 0.497c-0.673 0.429-1.454 0.656-2.252 0.656s-1.579-0.228-2.252-0.656c-0.496-0.324-1.076-0.497-1.668-0.497s-1.172 0.173-1.668 0.497c-0.666 0.443-1.451 0.672-2.251 0.656-0.8 0.017-1.586-0.212-2.252-0.656-0.489-0.339-1.074-0.513-1.669-0.497-0.593-0.016-1.175 0.158-1.662 0.496-0.666 0.445-1.453 0.674-2.253 0.657-0.8 0.017-1.586-0.212-2.252-0.656-0.489-0.339-1.074-0.513-1.669-0.497v-1.153c0.8-0.017 1.587 0.212 2.253 0.656 0.489 0.339 1.073 0.513 1.668 0.497 0.595 0.016 1.18-0.158 1.669-0.498 0.665-0.444 1.45-0.672 2.249-0.655 0.8-0.017 1.586 0.212 2.252 0.656 0.489 0.339 1.073 0.513 1.668 0.497 0.595 0.016 1.179-0.158 1.669-0.497 0.673-0.429 1.454-0.656 2.252-0.656s1.579 0.228 2.252 0.656c0.496 0.324 1.076 0.497 1.668 0.497s1.172-0.173 1.668-0.497c0.673-0.429 1.455-0.657 2.253-0.657s1.58 0.228 2.253 0.657c0.508 0.341 1.11 0.515 1.722 0.496 0.044 0.001 0.089-0.002 0.133-0.007l0.153 1.143c-0.116 0.014-0.232 0.020-0.349 0.018z"></path>
<path fill="#fff" style="fill: var(--color2, #fff)" d="M37.012 19.764c-0.801 0.016-1.587-0.213-2.254-0.656-0.496-0.324-1.076-0.497-1.669-0.497s-1.173 0.173-1.669 0.497c-0.673 0.428-1.454 0.656-2.252 0.656s-1.579-0.228-2.252-0.656c-0.496-0.324-1.075-0.497-1.667-0.497s-1.172 0.173-1.668 0.497c-0.673 0.428-1.454 0.656-2.252 0.656s-1.579-0.228-2.252-0.656c-0.496-0.324-1.075-0.497-1.667-0.497s-1.172 0.173-1.667 0.497c-0.666 0.444-1.452 0.673-2.252 0.656-0.8 0.017-1.586-0.212-2.252-0.656-0.489-0.339-1.073-0.513-1.667-0.497-0.594-0.016-1.178 0.158-1.667 0.497-0.665 0.443-1.45 0.672-2.249 0.656-0.8 0.017-1.587-0.212-2.253-0.656-0.49-0.34-1.075-0.514-1.671-0.497v-1.153c0.8-0.017 1.586 0.212 2.252 0.656 0.489 0.339 1.074 0.513 1.669 0.497 0.594 0.016 1.178-0.158 1.667-0.497 0.665-0.443 1.45-0.672 2.249-0.656 0.801-0.017 1.587 0.212 2.254 0.656 0.489 0.339 1.073 0.513 1.668 0.497 0.595 0.016 1.179-0.158 1.668-0.497 0.673-0.429 1.454-0.656 2.252-0.656s1.579 0.228 2.252 0.656c0.496 0.324 1.075 0.497 1.668 0.497s1.172-0.173 1.668-0.497c0.673-0.429 1.454-0.656 2.252-0.656s1.579 0.228 2.252 0.656c0.496 0.324 1.075 0.497 1.668 0.497s1.172-0.173 1.668-0.497c0.674-0.428 1.455-0.656 2.254-0.656s1.58 0.228 2.254 0.656c0.497 0.324 1.077 0.497 1.67 0.497s1.173-0.173 1.67-0.497c0.667-0.444 1.453-0.672 2.254-0.656v1.153c-0.596-0.017-1.182 0.157-1.672 0.497-0.666 0.443-1.452 0.672-2.253 0.656z"></path>
<path fill="#fff" style="fill: var(--color2, #fff)" d="M28.796 19.275l-1.088-0.382c0.28-0.805 0.395-1.658 0.337-2.509s-0.288-1.68-0.675-2.44l-3.96-7.756c-0.039-0.077-0.061-0.161-0.063-0.247s0.015-0.171 0.050-0.25c0.035-0.079 0.087-0.148 0.153-0.204s0.142-0.096 0.226-0.118l7.893-2.104c0.257-0.067 0.477-0.233 0.613-0.462s0.175-0.502 0.11-0.76-0.229-0.48-0.457-0.617c-0.228-0.137-0.5-0.179-0.759-0.117l-9.553 2.283c-0.204 0.048-0.395 0.143-0.556 0.277s-0.291 0.303-0.377 0.494c-0.086 0.191-0.127 0.4-0.119 0.61s0.064 0.415 0.163 0.599l2.837 5.27c0.072 0.134 0.088 0.291 0.045 0.437s-0.142 0.269-0.276 0.342l-3.661 2.018-0.556-1.010 3.161-1.742-2.563-4.767c-0.183-0.34-0.286-0.718-0.3-1.105s0.061-0.771 0.219-1.123c0.158-0.353 0.396-0.664 0.694-0.911s0.649-0.421 1.025-0.51l9.548-2.283c0.556-0.14 1.145-0.054 1.637 0.239s0.848 0.771 0.988 1.327 0.054 1.145-0.239 1.637c-0.294 0.492-0.771 0.848-1.327 0.988l-7.204 1.92 3.637 7.12c0.458 0.899 0.729 1.881 0.798 2.887s-0.067 2.016-0.399 2.969z"></path>
<path fill="#fff" style="fill: var(--color2, #fff)" d="M17.106 13.749l-7.007 3.861 0.556 1.009 7.007-3.861-0.556-1.009z"></path>
<path fill="#fff" style="fill: var(--color2, #fff)" d="M34.018 15.44c-0.855 0-1.691-0.254-2.402-0.729s-1.265-1.151-1.593-1.941c-0.327-0.79-0.413-1.66-0.246-2.498s0.579-1.609 1.183-2.214c0.605-0.605 1.375-1.017 2.214-1.183s1.708-0.081 2.498 0.246c0.79 0.327 1.466 0.882 1.941 1.593s0.729 1.547 0.729 2.402c-0.001 1.146-0.457 2.246-1.268 3.056s-1.91 1.267-3.056 1.268zM34.018 7.944c-0.627 0-1.24 0.186-1.762 0.534s-0.928 0.844-1.168 1.423-0.303 1.217-0.18 1.832c0.122 0.615 0.424 1.18 0.868 1.624s1.009 0.746 1.624 0.868 1.253 0.060 1.832-0.18c0.58-0.24 1.075-0.646 1.423-1.168s0.535-1.135 0.535-1.762c-0.001-0.841-0.336-1.647-0.93-2.241s-1.401-0.929-2.241-0.93z"></path>
</symbol>
<symbol id="icon-section-footer-icon-facebook" viewBox="0 0 17 32">
<path d="M15.036 5.525c-0.788-0.249-1.694-0.415-2.521-0.415-1.024 0-3.23 0.706-3.23 2.077v3.282h5.239v5.525h-5.239v15.245h-5.279v-15.245h-2.6v-5.525h2.6v-2.783c0-4.196 1.812-7.685 6.185-7.685 1.497 0 4.176 0.083 5.633 0.623l-0.788 4.902z"></path>
</symbol>
<symbol id="icon-section-footer-icon-google-play" viewBox="0 0 32 32">
<path fill="#2196f3" style="fill: var(--color4, #2196f3)" d="M18.412 16.003l-16.070 15.474c-0.753-0.514-1.199-1.37-1.191-2.281v-26.386c-0.008-0.911 0.439-1.767 1.191-2.281l16.070 15.474z"></path>
<path fill="#4caf50" style="fill: var(--color5, #4caf50)" d="M24.035 10.598l-5.623 5.405-16.070-15.474c0.061-0.047 0.124-0.091 0.189-0.131 0.849-0.515 1.91-0.531 2.775-0.044l18.728 10.243z"></path>
<path fill="#f0bb1f" style="fill: var(--color6, #f0bb1f)" d="M30.849 16.003c0.011 1.029-0.549 1.979-1.453 2.47l-5.361 2.935-5.623-5.405 5.623-5.405 5.361 2.935c0.904 0.491 1.464 1.441 1.453 2.47z"></path>
<path fill="#f15a2b" style="fill: var(--color7, #f15a2b)" d="M24.035 21.408l-18.729 10.243c-0.867 0.48-1.924 0.464-2.775-0.044-0.065-0.040-0.128-0.084-0.189-0.131l16.070-15.474 5.623 5.405z"></path>
</symbol>
<symbol id="icon-section-footer-icon-instagram" viewBox="0 0 32 32">
<path fill="#fff" style="fill: var(--color2, #fff)" d="M27.312 0h-22.625c-2.584 0-4.688 2.103-4.688 4.688v22.625c0 2.585 2.103 4.688 4.688 4.688h22.625c2.585 0 4.688-2.103 4.688-4.688v-22.625c0-2.584-2.103-4.688-4.688-4.688zM30.125 27.312c0 1.551-1.262 2.813-2.813 2.813h-22.625c-1.551 0-2.813-1.262-2.813-2.813v-22.625c0-1.551 1.262-2.813 2.813-2.813h22.625c1.551 0 2.813 1.262 2.813 2.813v22.625z"></path>
<path fill="#fff" style="fill: var(--color2, #fff)" d="M26.312 3.813c-1.034 0-1.875 0.841-1.875 1.875s0.841 1.875 1.875 1.875c1.034 0 1.875-0.841 1.875-1.875s-0.841-1.875-1.875-1.875z"></path>
<path fill="#fff" style="fill: var(--color2, #fff)" d="M16 7.563c-4.652 0-8.438 3.785-8.438 8.438s3.785 8.438 8.438 8.438c4.653 0 8.438-3.785 8.438-8.438s-3.785-8.438-8.438-8.438zM16 22.562c-3.619 0-6.563-2.944-6.563-6.562s2.944-6.563 6.563-6.563c3.619 0 6.562 2.944 6.562 6.563s-2.944 6.562-6.562 6.562z"></path>
</symbol>
<symbol id="icon-section-footer-icon-logo-apple" viewBox="0 0 28 32">
<path fill="#fff" style="fill: var(--color2, #fff)" d="M9.579 32c-4.763-0.027-8.702-9.749-8.702-14.701 0-8.088 6.067-9.858 8.405-9.858 1.054 0 2.179 0.414 3.171 0.78 0.694 0.255 1.412 0.519 1.811 0.519 0.239 0 0.802-0.224 1.299-0.421 1.060-0.422 2.379-0.947 3.916-0.947 0.003 0 0.006 0 0.009 0 1.147 0 4.625 0.252 6.716 3.392l0.49 0.736-0.705 0.532c-1.007 0.76-2.845 2.146-2.845 4.892 0 3.252 2.081 4.503 3.081 5.104 0.441 0.266 0.898 0.539 0.898 1.138 0 0.391-3.12 8.785-7.651 8.785-1.109 0-1.892-0.333-2.584-0.627-0.699-0.297-1.303-0.554-2.3-0.554-0.505 0-1.144 0.239-1.821 0.493-0.925 0.345-1.971 0.737-3.159 0.737h-0.031z"></path>
<path fill="#fff" style="fill: var(--color2, #fff)" d="M19.959 0c0.118 4.255-2.925 7.207-5.964 7.021-0.501-3.395 3.039-7.021 5.964-7.021z"></path>
</symbol>
<symbol id="icon-section-footer-icon-twitter" viewBox="0 0 39 32">
<path d="M39.385 4.308c-1.465 0.617-3.025 1.025-4.652 1.224 1.674-0.959 2.951-2.466 3.552-4.283-1.561 0.893-3.284 1.524-5.12 1.876-1.482-1.514-3.594-2.452-5.898-2.452-4.47 0-8.069 3.482-8.069 7.751 0 0.614 0.054 1.205 0.187 1.767-6.713-0.314-12.652-3.402-16.642-8.106-0.697 1.16-1.105 2.488-1.105 3.917 0 2.684 1.44 5.063 3.586 6.44-1.297-0.024-2.57-0.385-3.648-0.954 0 0.024 0 0.054 0 0.085 0 3.766 2.799 6.894 6.469 7.614-0.657 0.172-1.374 0.255-2.117 0.255-0.517 0-1.039-0.028-1.529-0.132 1.046 3.069 4.015 5.325 7.545 5.398-2.747 2.063-6.235 3.305-10.011 3.305-0.662 0-1.297-0.028-1.932-0.106 3.577 2.214 7.815 3.478 12.386 3.478 14.858 0 22.981-11.813 22.981-22.052 0-0.343-0.012-0.673-0.030-1.002 1.602-1.091 2.949-2.455 4.047-4.023z"></path>
</symbol>
<symbol id="icon-section-footer-logo-jadoo" viewBox="0 0 140 32">
<path fill="#181e4b" style="fill: var(--color8, #181e4b)" d="M17.86 2.278v20.747c0 2.568-0.787 4.597-2.36 6.088-1.546 1.491-3.589 2.236-6.129 2.236s-4.597-0.745-6.17-2.236c-1.546-1.491-2.319-3.52-2.319-6.088h4.762c0.028 1.27 0.345 2.278 0.952 3.023 0.635 0.745 1.56 1.118 2.775 1.118s2.14-0.373 2.775-1.118c0.635-0.773 0.952-1.781 0.952-3.023v-20.747h4.762zM23.966 19.546c0-2.291 0.469-4.321 1.408-6.088 0.966-1.767 2.264-3.133 3.893-4.1 1.656-0.994 3.479-1.491 5.466-1.491 1.795 0 3.354 0.359 4.68 1.077 1.353 0.69 2.43 1.56 3.23 2.609v-3.313h4.762v22.818h-4.762v-3.396c-0.801 1.077-1.891 1.974-3.272 2.692s-2.954 1.077-4.721 1.077c-1.96 0-3.755-0.497-5.384-1.491-1.629-1.021-2.926-2.429-3.893-4.224-0.939-1.822-1.408-3.879-1.408-6.17zM42.643 19.629c0-1.574-0.331-2.94-0.994-4.1-0.635-1.16-1.477-2.043-2.526-2.65s-2.181-0.911-3.396-0.911c-1.215 0-2.347 0.304-3.396 0.911-1.049 0.58-1.905 1.449-2.568 2.609-0.635 1.132-0.952 2.485-0.952 4.058s0.318 2.954 0.952 4.141c0.663 1.187 1.518 2.098 2.568 2.733 1.077 0.607 2.209 0.911 3.396 0.911 1.215 0 2.347-0.304 3.396-0.911s1.891-1.491 2.526-2.65c0.663-1.187 0.994-2.568 0.994-4.141zM52.032 19.546c0-2.291 0.469-4.321 1.408-6.088 0.966-1.767 2.264-3.133 3.893-4.1 1.656-0.994 3.492-1.491 5.508-1.491 1.491 0 2.954 0.331 4.39 0.994 1.463 0.635 2.623 1.491 3.479 2.568v-11.016h4.762v30.645h-4.762v-3.437c-0.773 1.104-1.85 2.015-3.23 2.733-1.353 0.718-2.913 1.077-4.68 1.077-1.988 0-3.81-0.497-5.466-1.491-1.629-1.021-2.926-2.429-3.893-4.224-0.939-1.822-1.408-3.879-1.408-6.17zM70.709 19.629c0-1.574-0.331-2.94-0.994-4.1-0.635-1.16-1.477-2.043-2.526-2.65s-2.181-0.911-3.396-0.911c-1.215 0-2.347 0.304-3.396 0.911-1.049 0.58-1.905 1.449-2.568 2.609-0.635 1.132-0.952 2.485-0.952 4.058s0.317 2.954 0.952 4.141c0.663 1.187 1.518 2.098 2.568 2.733 1.077 0.607 2.209 0.911 3.396 0.911 1.215 0 2.347-0.304 3.396-0.911s1.891-1.491 2.526-2.65c0.663-1.187 0.994-2.568 0.994-4.141zM91.57 31.432c-2.153 0-4.1-0.483-5.839-1.449-1.739-0.994-3.106-2.374-4.1-4.141-0.994-1.795-1.491-3.865-1.491-6.212 0-2.319 0.511-4.376 1.532-6.17s2.416-3.175 4.183-4.141c1.767-0.966 3.741-1.449 5.922-1.449s4.155 0.483 5.922 1.449c1.767 0.966 3.16 2.347 4.183 4.141s1.532 3.851 1.532 6.17-0.525 4.376-1.574 6.17c-1.049 1.795-2.485 3.189-4.307 4.183-1.795 0.966-3.783 1.449-5.964 1.449zM91.57 27.332c1.215 0 2.347-0.29 3.396-0.87 1.077-0.58 1.946-1.449 2.609-2.609s0.994-2.568 0.994-4.224c0-1.656-0.318-3.051-0.952-4.183-0.635-1.16-1.478-2.029-2.526-2.609-1.049-0.58-2.181-0.87-3.396-0.87s-2.347 0.29-3.396 0.87c-1.022 0.58-1.836 1.449-2.443 2.609-0.607 1.132-0.911 2.526-0.911 4.183 0 2.457 0.621 4.362 1.864 5.715 1.27 1.325 2.857 1.988 4.762 1.988zM117.977 31.432c-2.153 0-4.1-0.483-5.839-1.449-1.739-0.994-3.106-2.374-4.1-4.141-0.994-1.795-1.491-3.865-1.491-6.212 0-2.319 0.511-4.376 1.532-6.17s2.416-3.175 4.183-4.141c1.767-0.966 3.741-1.449 5.922-1.449s4.155 0.483 5.922 1.449c1.767 0.966 3.161 2.347 4.183 4.141s1.532 3.851 1.532 6.17c0 2.319-0.524 4.376-1.574 6.17s-2.485 3.189-4.307 4.183c-1.795 0.966-3.783 1.449-5.963 1.449zM117.977 27.332c1.215 0 2.346-0.29 3.396-0.87 1.077-0.58 1.946-1.449 2.609-2.609s0.994-2.568 0.994-4.224c0-1.656-0.317-3.051-0.952-4.183-0.635-1.16-1.477-2.029-2.526-2.609s-2.181-0.87-3.396-0.87c-1.215 0-2.346 0.29-3.396 0.87-1.021 0.58-1.836 1.449-2.443 2.609-0.607 1.132-0.911 2.526-0.911 4.183 0 2.457 0.621 4.362 1.864 5.715 1.27 1.325 2.857 1.988 4.762 1.988zM136.393 31.349c-0.856 0-1.574-0.29-2.153-0.87s-0.87-1.298-0.87-2.153c0-0.856 0.29-1.574 0.87-2.153s1.297-0.87 2.153-0.87c0.828 0 1.532 0.29 2.112 0.87s0.87 1.298 0.87 2.153c0 0.856-0.29 1.574-0.87 2.153s-1.284 0.87-2.112 0.87z"></path>
</symbol>
<symbol id="icon-section-header-icon-dropdown" viewBox="0 0 53 32">
<path stroke-width="5.3333" stroke-miterlimit="4" stroke-linecap="butt" stroke-linejoin="miter" d="M2.667 2.667l24 24 24-24"></path>
</symbol>
<symbol id="icon-section-header-logo-jadoo" viewBox="0 0 106 32">
<path fill="#f1a501" style="fill: var(--color9, #f1a501)" d="M68.571 26.514l8.686 2.743 7.314-7.314 9.143 6.4 9.6-1.829-4.114-13.257-14.629 4.571-8.229-4.571-8.686 1.371 0.914 11.886z"></path>
<path fill="#000" style="fill: var(--color3, #000)" d="M0.841 22.001v-1.977l5.594-1.009v2.734c0.028 1.486 0.407 2.608 1.136 3.365 0.757 0.729 1.752 1.093 2.986 1.093 1.206 0 2.159-0.392 2.86-1.178 0.729-0.785 1.094-1.837 1.094-3.154v-20.608h5.804v20.608c0 2.748-0.911 5.075-2.734 6.982s-4.15 2.86-6.982 2.86c-2.944 0-5.313-0.883-7.108-2.65-1.766-1.794-2.65-4.15-2.65-7.066z"></path>
<path fill="#000" style="fill: var(--color3, #000)" d="M21.647 25.45c0-1.766 0.575-3.182 1.724-4.248s2.636-1.738 4.458-2.019l5.089-0.757c1.037-0.14 1.556-0.631 1.556-1.472 0-0.785-0.308-1.43-0.925-1.935-0.589-0.505-1.444-0.757-2.566-0.757-1.178 0-2.117 0.322-2.818 0.967-0.673 0.645-1.051 1.444-1.136 2.397l-4.963-1.051c0.196-1.794 1.079-3.379 2.65-4.752s3.645-2.061 6.224-2.061c3.084 0 5.355 0.743 6.813 2.229 1.458 1.458 2.187 3.336 2.187 5.636v10.178c0 1.234 0.084 2.327 0.252 3.28h-5.131c-0.14-0.617-0.21-1.444-0.21-2.481-1.318 2.047-3.351 3.070-6.098 3.070-2.131 0-3.855-0.617-5.173-1.851-1.29-1.234-1.935-2.692-1.935-4.374zM29.932 27.511c1.318 0 2.397-0.365 3.238-1.093 0.869-0.757 1.304-1.991 1.304-3.701v-0.925l-4.668 0.715c-1.71 0.252-2.566 1.122-2.566 2.608 0 0.673 0.238 1.248 0.715 1.724 0.477 0.449 1.136 0.673 1.977 0.673z"></path>
<path fill="#000" style="fill: var(--color3, #000)" d="M61.858 0.636v26.706c0 1.374 0.056 2.622 0.168 3.743h-5.341c-0.14-0.701-0.21-1.5-0.21-2.397-0.477 0.869-1.234 1.57-2.271 2.103-1.009 0.533-2.187 0.799-3.533 0.799-2.944 0-5.369-1.023-7.276-3.070-1.879-2.075-2.818-4.682-2.818-7.823 0-3.056 0.925-5.622 2.776-7.696 1.879-2.075 4.262-3.112 7.15-3.112 2.972 0 4.921 0.855 5.846 2.566v-11.818h5.51zM46.213 20.698c0 1.822 0.477 3.266 1.43 4.332 0.953 1.037 2.187 1.556 3.701 1.556 1.486 0 2.706-0.533 3.659-1.598s1.43-2.509 1.43-4.332c0-1.794-0.477-3.196-1.43-4.206-0.953-1.037-2.173-1.556-3.659-1.556s-2.72 0.519-3.701 1.556c-0.953 1.037-1.43 2.453-1.43 4.248z"></path>
<path fill="#000" style="fill: var(--color3, #000)" d="M70.113 25.072c1.037 1.037 2.285 1.556 3.743 1.556s2.692-0.519 3.701-1.556c1.037-1.037 1.556-2.481 1.556-4.332s-0.519-3.294-1.556-4.332c-1.009-1.037-2.243-1.556-3.701-1.556s-2.706 0.519-3.743 1.556c-1.009 1.037-1.514 2.481-1.514 4.332s0.505 3.294 1.514 4.332zM66.076 12.875c2.075-2.075 4.668-3.112 7.781-3.112s5.692 1.037 7.739 3.112c2.075 2.075 3.112 4.696 3.112 7.865s-1.037 5.79-3.112 7.865c-2.047 2.075-4.626 3.112-7.739 3.112s-5.706-1.037-7.781-3.112c-2.047-2.075-3.070-4.696-3.070-7.865s1.023-5.79 3.070-7.865z"></path>
<path fill="#000" style="fill: var(--color3, #000)" d="M91.31 25.072c1.038 1.037 2.285 1.556 3.743 1.556s2.692-0.519 3.701-1.556c1.038-1.037 1.556-2.481 1.556-4.332s-0.518-3.294-1.556-4.332c-1.009-1.037-2.243-1.556-3.701-1.556s-2.705 0.519-3.743 1.556c-1.009 1.037-1.514 2.481-1.514 4.332s0.505 3.294 1.514 4.332zM87.272 12.875c2.075-2.075 4.668-3.112 7.781-3.112s5.691 1.037 7.739 3.112c2.075 2.075 3.112 4.696 3.112 7.865s-1.038 5.79-3.112 7.865c-2.047 2.075-4.626 3.112-7.739 3.112s-5.706-1.037-7.781-3.112c-2.047-2.075-3.070-4.696-3.070-7.865s1.023-5.79 3.070-7.865z"></path>
</symbol>
<symbol id="icon-section-hero-polygon" viewBox="0 0 30 32">
<path fill="#fff" style="fill: var(--color2, #fff)" d="M29.538 16l-27.692 15.988v-31.976l27.692 15.988z"></path>
</symbol>
<symbol id="icon-section-partners-logo-alitalia" viewBox="0 0 143 32">
<path d="M0 0h143.238v32h-143.238v-32z"></path>
</symbol>
<symbol id="icon-section-partners-logo-axon" viewBox="0 0 32 32">
<path d="M0 0h32v32h-32v-32z"></path>
</symbol>
<symbol id="icon-section-partners-logo-expedia" viewBox="0 0 32 32">
<path d="M0 0h32v32h-32v-32z"></path>
</symbol>
<symbol id="icon-section-partners-logo-jetstar" viewBox="0 0 50 32">
<path d="M0 0h50.286v32h-50.286v-32z"></path>
</symbol>
<symbol id="icon-section-partners-logo-qantas" viewBox="0 0 162 32">
<path d="M0 0h162v32h-162v-32z"></path>
</symbol>
<symbol id="icon-section-subscribe-icon-check" viewBox="0 0 75 32">
<path fill="none" stroke="#39425d" stroke-width="5.3333" stroke-miterlimit="4" stroke-linecap="round" stroke-linejoin="miter" style="stroke: var(--color10, #39425d)" d="M5.329 5.333l28.8 21.6c1.896 1.422 4.504 1.422 6.4 0l28.8-21.6"></path>
</symbol>
<symbol id="icon-section-subscribe-icon-send" viewBox="0 0 33 32">
<path fill="#fff" style="fill: var(--color2, #fff)" d="M27.352 9.448c0.503 0.871 0.435 1.908-0.177 2.706l-13.435 17.532c-0.554 0.723-1.466 1.092-2.399 0.913-0.914-0.176-1.638-0.842-1.889-1.737l-2.195-7.811-5.667-5.807c-0.65-0.666-0.865-1.626-0.56-2.505 0.301-0.869 1.058-1.499 1.99-1.622l21.901-2.869c0.997-0.131 1.929 0.329 2.432 1.2z"></path>
<path fill="#fff" style="fill: var(--color2, #fff)" d="M7.464 21.786l1.988 7.075c0.251 0.896 0.976 1.562 1.889 1.737 0.933 0.179 1.845-0.189 2.399-0.913l13.436-17.532c0.612-0.798 0.679-1.835 0.177-2.706l-20.096 11.602 0.207 0.736z"></path>
<path fill="#000" style="fill: var(--color3, #000)" d="M15.434 16.328c0.204 0.354 0.083 0.807-0.271 1.012l-7.699 4.445-0.207-0.736-0.534-0.547 7.699-4.445c0.355-0.205 0.808-0.083 1.012 0.271z"></path>
<path fill="#000" style="fill: var(--color3, #000)" d="M7.464 21.786l7.699-4.445c0.355-0.205 0.476-0.658 0.271-1.012l-8.178 4.721 0.207 0.736z"></path>
</symbol>
<symbol id="icon-section-testimonials-icon-dropdown" viewBox="0 0 51 32">
<path fill="none" stroke="#bcb7c2" stroke-width="6.4" stroke-miterlimit="4" stroke-linecap="round" stroke-linejoin="miter" style="stroke: var(--color11, #bcb7c2)" d="M3.2 27.2l22.4-22.4 22.4 22.4"></path>
</symbol>
<symbol id="icon-section-testimonials-icon-dropup" viewBox="0 0 51 32">
<path fill="none" stroke="#3e2e4d" stroke-width="6.4" stroke-miterlimit="4" stroke-linecap="round" stroke-linejoin="miter" style="stroke: var(--color12, #3e2e4d)" d="M3.2 3.2l22.4 22.4 22.4-22.4"></path>
</symbol>
<symbol id="icon-section-top-selling-icon-navigation" viewBox="0 0 32 32">
<path d="M28.909 4.417l-11 24c-0.092 0.201-0.248 0.366-0.444 0.469s-0.42 0.138-0.638 0.1-0.417-0.147-0.566-0.311c-0.149-0.163-0.24-0.371-0.258-0.592l-0.93-11.157-11.157-0.93c-0.22-0.018-0.428-0.109-0.592-0.258s-0.272-0.348-0.311-0.566c-0.038-0.218-0.003-0.442 0.1-0.638s0.268-0.352 0.469-0.444l24-11c0.185-0.085 0.393-0.111 0.593-0.075s0.386 0.133 0.53 0.277 0.241 0.329 0.277 0.53c0.036 0.201 0.010 0.408-0.075 0.594l0 0z"></path>
</symbol>
</defs>
</svg>
